<svg width="24" height="24" viewBox="0 0 24 24" fill="none" xmlns="http://www.w3.org/2000/svg">
<path d="M2.12591 5.25071C2.48388 4.50342 3.06685 3.92607 3.64777 3.36509C4.96201 2.07949 6.56051 1.12205 8.31358 0.570444C10.2596 -0.0499537 12.3309 -0.16653 14.3341 0.231606C16.3373 0.629742 18.2069 1.5296 19.7684 2.84711C20.333 3.31595 20.333 3.3221 19.9975 3.96701C18.4552 6.91794 16.9143 9.87365 15.3747 12.8341C15.207 13.1576 15.0474 13.4852 14.8776 13.8087C14.8204 13.9172 14.7897 14.0666 14.6322 14.0707C14.4747 14.0748 14.4276 13.9295 14.3785 13.8189C13.8651 12.8403 13.3558 11.8616 12.8403 10.8789C12.0691 9.40071 11.3103 7.91842 10.5391 6.44227C10.4439 6.27791 10.3401 6.11868 10.2282 5.96524C9.91517 5.36889 9.4685 4.85315 8.92315 4.45838C8.09487 3.80358 7.07178 3.44452 6.01632 3.43821C4.96086 3.43191 3.93356 3.77872 3.09753 4.42358C2.75593 4.68154 2.51865 5.05621 2.12591 5.25071Z" fill="#2CD6FF"/>
<path d="M21.859 18.7346C21.6258 19.2444 21.231 19.6539 20.8649 20.0634C18.8623 22.2479 16.3893 23.5623 13.4478 23.9022C11.8614 24.1082 10.2497 23.988 8.71129 23.5491C7.17287 23.1101 5.74014 22.3615 4.50078 21.3491C3.6703 20.6919 3.68258 20.6714 4.15509 19.7501C5.79832 16.5671 7.44768 13.3855 9.10318 10.2053C9.16046 10.0968 9.18705 9.94325 9.34455 9.93711C9.50206 9.93097 9.53274 10.0907 9.58797 10.1951C10.5166 11.9763 11.4289 13.7657 12.374 15.5387C12.8199 16.3781 13.1819 17.2646 13.7465 18.0365L13.8283 18.1143C13.8268 18.1654 13.8354 18.2164 13.8536 18.2642C13.8719 18.3119 13.8994 18.3556 13.9347 18.3927C15.4893 20.5691 18.3693 21.2918 20.6603 19.7235C21.0981 19.4287 21.4294 19.0233 21.859 18.7346Z" fill="#F859FF"/>
<path d="M8.92315 4.45838C8.09487 3.80358 7.07178 3.44452 6.01632 3.43821C4.96086 3.43191 3.93356 3.77872 3.09753 4.42358C2.75593 4.68154 2.51865 5.05621 2.12591 5.25071C2.05841 5.25071 2.0156 5.28551 2.01969 5.36331C1.15853 6.52211 0.690106 7.86723 0.258503 9.21849C0.0794083 9.8272 -0.00746929 10.4594 0.000769035 11.0939C0.000769035 12.1728 -0.0217316 13.2518 0.176683 14.3123C0.404228 15.5492 0.834838 16.7398 1.45104 17.8358C1.82332 18.493 1.83559 18.491 2.22219 17.8604C2.28923 17.7719 2.35006 17.6789 2.40424 17.582C2.88085 16.4948 3.48018 15.4711 4.01815 14.4167C4.79545 12.8955 5.64229 11.4112 6.39504 9.87774C6.95551 8.72712 7.56916 7.60517 8.15827 6.46274C8.40782 5.97547 8.79851 5.60285 9.44899 5.6438C9.77422 5.66018 9.94181 5.92429 10.2282 5.96524C9.91517 5.36889 9.4685 4.85315 8.92315 4.45838Z" fill="#3468FF"/>
<path d="M23.835 10.1726C23.6125 8.70786 23.117 7.29804 22.3745 6.01642C22.0902 5.53529 22.0002 5.54757 21.7281 6.05941C21.7097 6.09217 21.6974 6.12698 21.6811 6.16178C21.1492 7.37382 20.5131 8.53467 19.8687 9.68938C19.1794 10.9178 18.6005 12.2056 17.9439 13.4504C17.6616 13.9827 17.3303 14.4925 17.0725 15.033C16.6143 15.9543 16.1664 16.8756 15.6407 17.7683C15.5432 17.9531 15.3954 18.1066 15.2144 18.211C15.0334 18.3153 14.8266 18.3662 14.6179 18.3579C14.3395 18.3389 14.0675 18.2581 13.8283 18.1143C13.8268 18.1654 13.8354 18.2164 13.8536 18.2642C13.8719 18.3119 13.8994 18.3556 13.9347 18.3927C15.4893 20.5691 18.3693 21.2918 20.6603 19.7235C21.0981 19.4287 21.4294 19.0233 21.859 18.7346C21.8718 18.7196 21.8715 18.701 21.8733 18.6814L21.9368 18.6015C23.0925 17.0926 23.6325 15.3258 23.9045 13.4831C24.052 12.3826 24.0285 11.2659 23.835 10.1726Z" fill="#764ADA"/>
</svg>
