<svg width="59" height="15" viewBox="0 0 59 15" xmlns="http://www.w3.org/2000/svg">
<path d="M4.03648 2.4728C3.06785 2.4728 2.45957 2.91909 2.05295 3.4844C1.92402 3.0348 1.69261 2.28436 1.11408 2.28436C0.0297528 2.28436 0 3.77201 0 4.87286C0 5.58032 0.0429764 6.26133 0.0429764 6.96879V7.63327C0.0429764 8.7176 -0.0727294 10.7441 1.05788 10.7441L1.49095 10.6284C2.11246 10.2515 2.22816 9.32588 2.28436 8.40024V7.57707C2.28436 7.15723 2.27114 6.72416 2.27114 6.30431C2.27114 6.02992 2.4728 5.6233 2.5885 5.39189C2.69098 5.19023 2.9224 4.72741 3.15381 4.72741C3.65961 4.72741 3.68936 5.36544 3.68936 5.87124C3.68936 7.0845 3.372 8.03989 3.372 9.25315C3.372 9.87466 3.45795 10.9887 4.07945 10.9887C4.68773 10.9887 5.01832 10.3672 5.23651 9.87466C5.6828 8.82008 6.0167 7.28615 6.0167 5.85471C6.0167 4.13565 5.78529 2.4728 4.03648 2.4728ZM11.9904 7.41839C11.5838 7.41839 11.2532 7.69278 10.9755 7.88121C10.7011 8.06965 10.3408 8.34404 9.90772 8.34404C9.35563 8.34404 8.99529 8.06965 8.92256 7.56054C9.34241 7.54732 9.76226 7.44484 10.1656 7.27293C11.2532 6.81011 12.2648 5.84149 12.2648 4.33731C12.2648 4.00342 12.2053 3.69928 12.0764 3.42489C11.7127 2.67446 10.9491 2.09593 9.86474 2.09593C9.29943 2.09593 8.80686 2.24139 8.40354 2.54553C7.33244 3.32571 6.59523 4.88609 6.59523 6.68118C6.59523 7.706 6.94234 8.64487 7.39194 9.31266C7.85477 9.99036 8.61842 10.6416 9.70275 10.6416C10.4433 10.6416 11.1805 10.2218 11.6565 9.84821C12.1326 9.47134 12.7111 8.84983 12.7111 8.08287C12.7111 7.69278 12.364 7.41839 11.9904 7.41839ZM10.4267 4.62492L10.2548 5.0613C9.93416 5.39189 9.37216 5.55057 8.83661 5.66627C8.87959 4.92906 9.2267 4.04639 10.0234 4.04639C10.2978 4.04639 10.4267 4.36706 10.4267 4.62492ZM18.698 2.66123C18.4534 2.66123 18.2088 2.77694 17.9311 2.9786C17.1806 3.5406 16.4996 4.48277 15.9806 5.26296C15.7624 4.81336 15.4583 4.19185 15.1707 3.77201C14.9095 3.38191 14.4897 2.83314 13.9277 2.83314C13.4946 2.83314 13.2037 3.12406 13.2037 3.55713C13.2037 3.55713 13.2632 3.99019 13.3491 4.29434C13.6103 5.13403 14.0268 6.04314 14.4169 6.73738C14.1723 7.17045 13.769 7.80848 13.4946 8.29775C13.2467 8.73413 12.8566 9.38539 12.8566 9.91763C12.8566 10.2945 13.1012 10.6284 13.4946 10.6284C13.4946 10.6284 13.8549 10.5557 14.0698 10.397C14.7079 9.94739 15.2996 9.18042 15.8219 8.63165C16.0963 8.96554 16.4269 9.44159 16.7608 9.77548C17.0517 10.0631 17.4683 10.4829 17.9608 10.4829C18.3245 10.4829 18.6253 10.0928 18.6253 9.74573C18.6253 9.74573 18.5823 9.35563 18.4832 9.09447C18.1922 8.38701 17.6864 7.63327 17.3096 7.04152C17.6864 6.43324 18.0468 5.81173 18.4237 5.20345C18.7146 4.69765 19.2336 4.07615 19.2336 3.30918C19.2336 2.99182 19.0154 2.66123 18.698 2.66123ZM24.1065 9.06472C23.8321 9.06472 23.5445 9.12422 23.2701 9.12422C22.5031 9.12422 22.3874 8.42999 22.3874 7.67625L22.4006 7.17045C22.4734 6.28778 22.5163 5.50759 22.6453 4.64145C23.3858 4.56872 24.7015 4.32409 24.7015 3.52737C24.7015 2.87611 23.8618 2.68768 23.2106 2.68768C23.2106 2.68768 22.9792 2.70421 22.7345 2.73066C22.8635 2.24139 22.9362 1.93724 22.9362 1.41492C22.9362 0.766964 22.6618 0 22.0105 0C21.7494 0 21.5345 0.0859534 21.3593 0.274388C20.8832 0.793411 20.708 1.76203 20.708 2.74718C19.9873 2.81991 18.7278 3.07777 18.7278 3.87449C18.7278 4.43979 19.2766 4.68443 19.8419 4.68443L20.3345 4.67121C20.232 5.61007 20.1592 6.44977 20.1592 7.43161C20.1592 7.98039 20.1725 8.50272 20.2187 8.94901C20.3477 10.4962 21.2303 11.1044 22.9494 11.1044C23.7759 11.1044 24.8007 10.8003 24.8007 9.96392C24.8007 9.45481 24.6123 9.06472 24.1065 9.06472ZM26.7545 0.317365C26.2024 0.317365 25.6404 0.634729 25.6404 1.1835C25.6404 1.5736 25.971 1.76203 26.3478 1.76203C26.8702 1.76203 27.4752 1.40169 27.4752 0.88267C27.4752 0.489271 27.128 0.317365 26.7545 0.317365ZM25.28 4.17863C25.28 4.45302 25.2933 4.72741 25.3065 5.00179C25.3958 6.20183 25.4817 7.35888 25.4817 8.64487C25.4817 9.99036 25.2073 10.9325 24.642 11.597C24.2222 12.0896 23.6734 12.321 23.1081 12.5954C22.675 12.8103 22.2717 13.0285 22.2717 13.6632C22.2717 14.2583 22.5593 14.5888 23.1544 14.5888C23.4122 14.5888 23.7031 14.5326 23.9908 14.4302C24.8867 14.0996 25.7131 13.4913 26.3346 12.8995C27.5347 11.7259 27.7528 9.35563 27.7528 7.01177V6.37704C27.7528 6.10265 27.7363 5.79851 27.7231 5.48115C27.6636 4.42326 27.5479 2.5885 26.4503 2.5885C25.6536 2.5885 25.28 3.38191 25.28 4.17863ZM31.7992 1.90749C31.4091 1.90749 31.0323 1.99344 30.6719 2.1389C29.6901 2.54553 28.8074 3.41167 28.8074 4.75716C28.8074 5.08775 28.8934 5.37866 29.0521 5.65305C29.343 6.15885 29.7463 6.65143 30.0802 7.09772C30.2389 7.31591 30.3116 7.72253 30.3116 7.72253L30.1529 8.19858C29.5446 8.86306 28.1694 8.51594 28.1694 9.80193C28.1694 10.5127 28.8206 10.7143 29.5314 10.7143C30.4405 10.7143 31.2505 10.2218 31.7728 9.7325C32.2918 9.23993 32.8571 8.47297 32.8571 7.54732C32.8571 6.78036 32.4802 6.34729 32.0472 6.02992C31.7133 5.78198 31.2372 5.50759 31.2372 4.94559C31.2372 4.29434 31.7001 4.04639 32.1331 3.81498C32.5365 3.61332 33.0158 3.41167 33.0158 2.83314C33.0158 2.15213 32.4802 1.90749 31.7992 1.90749ZM38.0341 9.06472C37.7564 9.06472 37.4688 9.12422 37.1944 9.12422C36.4275 9.12422 36.3118 8.42999 36.3118 7.67625L36.325 7.17045C36.3977 6.28778 36.4407 5.50759 36.5729 4.64145C37.3101 4.56872 38.6259 4.32409 38.6259 3.52737C38.6259 2.87611 37.7862 2.68768 37.1349 2.68768C37.1349 2.68768 36.9035 2.70421 36.6589 2.73066C36.7878 2.24139 36.8605 1.93724 36.8605 1.41492C36.8605 0.766964 36.5862 0 35.9349 0C35.677 0 35.4588 0.0859534 35.2869 0.274388C34.8076 0.793411 34.6357 1.76203 34.6357 2.74718C33.9117 2.81991 32.6522 3.07777 32.6522 3.87449C32.6522 4.43979 33.2042 4.68443 33.7662 4.68443L34.2588 4.67121C34.1563 5.61007 34.0836 6.44977 34.0836 7.43161C34.0836 7.98039 34.1001 8.50272 34.1431 8.94901C34.272 10.4962 35.1547 11.1044 36.8771 11.1044C37.7002 11.1044 38.7284 10.8003 38.7284 9.96392C38.7284 9.45481 38.5399 9.06472 38.0341 9.06472ZM47.9088 2.45627C47.317 2.45627 46.9567 2.87611 46.7385 3.30918C46.2327 4.29434 46.1005 5.739 46.0575 7.17045C45.7401 5.91422 45.35 4.53897 44.7583 3.52737C44.5533 3.18025 44.236 2.66123 43.7897 2.66123C43.4128 2.66123 43.1219 3.21001 42.9334 3.52737C42.3714 4.50922 41.8491 5.82826 41.5185 6.99854C41.4755 6.05637 41.4326 5.04477 41.2574 4.22161C41.1119 3.51415 40.854 2.4728 40.0573 2.4728C39.1317 2.4728 39.016 3.35547 39.016 4.27781C39.016 6.08612 39.2176 7.98039 39.6805 9.38539C39.8689 9.94739 40.2028 10.7143 40.8375 10.7143C40.8375 10.7143 41.2276 10.6284 41.4326 10.4829C41.8954 10.1358 42.2855 9.60027 42.6161 9.06472C43.0789 8.31428 43.5582 7.44484 43.8888 6.60845C44.0343 7.38864 44.3087 8.42999 44.5996 9.15398C44.8442 9.77548 45.3071 10.7871 46.0443 10.7871C46.0443 10.7871 46.4773 10.6416 46.6955 10.354C47.4757 9.31266 47.9518 7.57707 48.2856 6.05637C48.4741 5.21998 48.6757 4.25136 48.6757 3.39844C48.6757 2.87611 48.4311 2.45627 47.9088 2.45627ZM53.8957 9.06472C53.6213 9.06472 53.3337 9.12422 53.056 9.12422C52.2924 9.12422 52.1767 8.42999 52.1767 7.67625L52.1899 7.17045C52.2626 6.28778 52.3056 5.50759 52.4345 4.64145C53.1717 4.56872 54.4875 4.32409 54.4875 3.52737C54.4875 2.87611 53.6511 2.68768 52.9998 2.68768C52.9998 2.68768 52.7684 2.70421 52.5238 2.73066C52.6527 2.24139 52.7254 1.93724 52.7254 1.41492C52.7254 0.766964 52.4511 0 51.7998 0C51.5386 0 51.3238 0.0859534 51.1485 0.274388C50.6725 0.793411 50.4973 1.76203 50.4973 2.74718C49.7733 2.81991 48.5171 3.07777 48.5171 3.87449C48.5171 4.43979 49.0658 4.68443 49.6311 4.68443L50.1204 4.67121C50.0212 5.61007 49.9485 6.44977 49.9485 7.43161C49.9485 7.98039 49.9617 8.50272 50.0047 8.94901C50.1369 10.4962 51.0196 11.1044 52.7387 11.1044C53.5651 11.1044 54.59 10.8003 54.59 9.96392C54.59 9.45481 54.4015 9.06472 53.8957 9.06472ZM57.7867 1.90749C57.3966 1.90749 57.0198 1.99344 56.6594 2.1389C55.6743 2.54553 54.7916 3.41167 54.7916 4.75716C54.7916 5.08775 54.8809 5.37866 55.0396 5.65305C55.3272 6.15885 55.7338 6.65143 56.0644 7.09772C56.2231 7.31591 56.2958 7.72253 56.2958 7.72253L56.1371 8.19858C55.5288 8.86306 54.1569 8.51594 54.1569 9.80193C54.1569 10.5127 54.8082 10.7143 55.5156 10.7143C56.428 10.7143 57.238 10.2218 57.757 9.7325C58.2793 9.23993 58.8413 8.47297 58.8413 7.54732C58.8413 6.78036 58.4645 6.34729 58.0314 6.02992C57.7008 5.78198 57.2214 5.50759 57.2214 4.94559C57.2214 4.29434 57.6843 4.04639 58.1173 3.81498C58.524 3.61332 59 3.41167 59 2.83314C59 2.15213 58.4644 1.90749 57.7867 1.90749Z" />
</svg>
