<svg width="23" height="19" viewBox="0 0 23 19" fill="#ffffff" xmlns="http://www.w3.org/2000/svg">
<path d="M7.26178 18.9222C15.8837 18.9222 20.5984 11.6729 20.5984 5.38679C20.5984 5.18088 20.5943 4.9759 20.5852 4.77186C21.5004 4.10035 22.296 3.26236 22.9233 2.30843C22.0835 2.68731 21.1797 2.94237 20.2315 3.05738C21.1993 2.46842 21.9423 1.53675 22.2928 0.426075C21.3871 0.970978 20.3841 1.36702 19.3163 1.58081C18.4609 0.656096 17.2431 0.0778046 15.8947 0.0778046C13.3062 0.0778046 11.207 2.20826 11.207 4.83446C11.207 5.20778 11.2481 5.57089 11.3285 5.91917C7.43269 5.72022 3.97824 3.8272 1.66659 0.948723C1.26403 1.65176 1.0319 2.46842 1.0319 3.3398C1.0319 4.99028 1.85942 6.44737 3.11782 7.29974C2.3488 7.27563 1.62638 7.06138 0.994889 6.70476C0.994199 6.72472 0.994202 6.74418 0.994202 6.76551C0.994202 9.0694 2.60993 10.993 4.7548 11.429C4.36092 11.5379 3.94648 11.5964 3.51878 11.5964C3.2172 11.5964 2.92339 11.5662 2.6378 11.5106C3.23456 13.4008 4.96499 14.7763 7.01664 14.8148C5.41233 16.091 3.3913 16.8511 1.1948 16.8511C0.816908 16.8511 0.443589 16.8293 0.0766678 16.7852C2.15117 18.1347 4.61452 18.9222 7.26201 18.9222" />
</svg>
