<?xml version="1.0" standalone="no"?>
<!DOCTYPE svg PUBLIC "-//W3C//DTD SVG 20010904//EN"
 "http://www.w3.org/TR/2001/REC-SVG-20010904/DTD/svg10.dtd">
<svg version="1.0" xmlns="http://www.w3.org/2000/svg"
 width="700.000000pt" height="700.000000pt" viewBox="0 0 700.000000 700.000000"
 preserveAspectRatio="xMidYMid meet">
<metadata>
Created by potrace 1.14, written by Peter Selinger 2001-2017
</metadata>
<g transform="translate(0.000000,700.000000) scale(0.100000,-0.100000)"
fill="#000000" stroke="none">
<path d="M3220 6079 c-151 -265 -288 -505 -303 -533 -16 -28 -46 -80 -67 -116
-33 -56 -274 -479 -348 -610 -14 -25 -78 -137 -142 -250 -65 -113 -126 -221
-137 -240 -11 -19 -66 -116 -123 -215 -57 -99 -114 -200 -128 -225 -14 -25
-50 -88 -80 -140 -30 -52 -66 -115 -80 -140 -54 -97 -949 -1666 -980 -1720
-11 -19 -33 -57 -48 -85 -14 -27 -35 -62 -45 -77 -11 -14 -19 -28 -19 -31 0
-3 -41 -76 -91 -163 -50 -88 -105 -184 -122 -214 -17 -30 -50 -88 -74 -128
-24 -41 -43 -75 -43 -77 0 -2 -19 -36 -43 -77 -24 -40 -56 -95 -71 -123 -27
-49 -88 -155 -106 -185 -25 -42 -81 -142 -110 -195 -18 -33 -40 -70 -48 -82
l-14 -23 3501 0 3501 0 -27 48 c-14 26 -87 153 -161 282 -74 129 -146 255
-160 280 -13 25 -61 108 -105 185 -44 77 -101 176 -125 220 -24 44 -48 85 -52
90 -4 6 -19 30 -32 55 -40 72 -57 102 -333 585 -144 253 -356 624 -470 825
-277 487 -439 771 -485 850 -38 66 -402 704 -427 750 -8 14 -24 43 -37 65 -12
22 -35 62 -51 89 -15 27 -70 124 -123 215 -52 91 -105 184 -117 206 -12 22
-86 153 -165 290 -79 138 -152 265 -162 283 -10 18 -37 66 -59 105 -23 40 -53
92 -67 116 -14 25 -37 65 -52 90 -14 26 -29 53 -33 61 -5 8 -13 24 -20 35 -7
12 -61 107 -121 213 -61 106 -113 192 -116 192 -3 0 -129 -217 -280 -481z"/>
</g>
</svg>
